<?xml version="1.0" encoding="UTF-8" standalone="no"?>
<!-- Created with Inkscape (http://www.inkscape.org/) -->

<svg
   xmlns:dc="http://purl.org/dc/elements/1.1/"
   xmlns:cc="http://creativecommons.org/ns#"
   xmlns:rdf="http://www.w3.org/1999/02/22-rdf-syntax-ns#"
   xmlns:svg="http://www.w3.org/2000/svg"
   xmlns="http://www.w3.org/2000/svg"
   xmlns:sodipodi="http://sodipodi.sourceforge.net/DTD/sodipodi-0.dtd"
   xmlns:inkscape="http://www.inkscape.org/namespaces/inkscape"
   width="264.58334mm"
   height="102.72745mm"
   viewBox="0 0 264.58334 102.72745"
   version="1.1"
   id="svg1010"
   inkscape:version="0.92.4 (5da689c313, 2019-01-14)"
   sodipodi:docname="Summarecon Agung.svg">
  <defs
     id="defs1004" />
  <sodipodi:namedview
     id="base"
     pagecolor="#ffffff"
     bordercolor="#666666"
     borderopacity="1.0"
     inkscape:pageopacity="0.0"
     inkscape:pageshadow="2"
     inkscape:zoom="1"
     inkscape:cx="723.61365"
     inkscape:cy="-23.532159"
     inkscape:document-units="mm"
     inkscape:current-layer="layer1"
     showgrid="false"
     fit-margin-top="0"
     fit-margin-left="0"
     fit-margin-right="0"
     fit-margin-bottom="0"
     inkscape:window-width="1920"
     inkscape:window-height="1001"
     inkscape:window-x="-9"
     inkscape:window-y="-9"
     inkscape:window-maximized="1" />
  <metadata
     id="metadata1007">
    <rdf:RDF>
      <cc:Work
         rdf:about="">
        <dc:format>image/svg+xml</dc:format>
        <dc:type
           rdf:resource="http://purl.org/dc/dcmitype/StillImage" />
        <dc:title></dc:title>
      </cc:Work>
    </rdf:RDF>
  </metadata>
  <g
     inkscape:label="Layer 1"
     inkscape:groupmode="layer"
     id="layer1"
     transform="translate(-106.22628,-154.74901)">
    <g
       id="g1589"
       transform="matrix(4.3231025,0,0,4.3231025,-353.00084,-855.62066)">
      <g
         transform="matrix(0.35277777,0,0,-0.35277777,108.83543,239.68527)"
         id="g885">
        <path
           inkscape:connector-curvature="0"
           id="path887"
           style="fill:#ffdd00;fill-opacity:1;fill-rule:nonzero;stroke:none"
           d="M 0,0 -0.002,-0.045 Z M -0.002,-0.045 V -0.048 Z M 11.572,14.972 C 9.81,13.21 8.232,10.739 7.209,7.815 6.808,6.668 6.483,5.447 6.252,4.163 6.019,2.871 5.881,1.53 5.858,0.154 V 0.152 0.106 0.108 0.106 c -0.063,-4.001 0.766,-7.467 2.428,-11.083 1.643,-3.578 4.088,-7.278 7.284,-11.795 1.255,-1.772 3.971,-5.783 5.754,-10.465 0.77,-2.02 1.366,-4.165 1.592,-6.306 l -6.082,0.034 c -0.239,2.249 -0.861,4.491 -1.662,6.598 -1.835,4.821 -4.727,8.933 -6.011,10.749 -3.096,4.377 -5.188,7.959 -6.759,11.384 C 1.207,-8.176 0.481,-5.633 0.126,-2.912 0.028,-1.977 -0.016,-1.019 0,-0.024 V 0 0.002 c 0.024,1.325 0.142,2.597 0.367,3.797 0.572,3.035 2.505,7.002 5.047,9.098 2.148,1.769 5.25,2.729 7.226,2.94 -0.339,-0.28 -0.844,-0.641 -1.068,-0.865 M 8.579,-50.077 c -6.968,-0.419 -14.338,3.596 -15.975,9.486 h 7.2 c 1.282,-4.742 4.181,-8.112 8.775,-9.486" />
      </g>
      <g
         transform="matrix(0.35277777,0,0,-0.35277777,111.36005,239.63806)"
         id="g889">
        <path
           inkscape:connector-curvature="0"
           id="path891"
           style="fill:#faa61a;fill-opacity:1;fill-rule:nonzero;stroke:none"
           d="m 0,0 v -0.045 z m 0,-0.045 v -0.001 z m 21.889,-46.903 c -0.088,-0.195 -0.175,-0.344 -0.273,-0.486 -0.039,0.016 -0.077,0.031 -0.117,0.047 -1.905,1.039 -3.73,2.78 -4.421,4.361 0.324,3.385 -0.477,6.908 -1.698,10.117 -1.837,4.819 -4.622,8.932 -5.906,10.747 -3.098,4.38 -5.477,7.971 -7.072,11.384 C 1.23,-8.163 0.481,-5.633 0.126,-2.912 0.026,-1.976 -0.016,-1.017 0,-0.021 V 0 0.003 c 0.023,1.325 0.152,2.594 0.369,3.798 0.219,1.209 0.525,2.366 0.906,3.455 0.969,2.767 2.474,5.14 4.162,6.841 1.179,1.148 2.442,1.943 3.68,2.3 1.442,0.304 3.077,0.462 5.026,0.369 C 11.327,15.184 8.682,11.865 7.16,7.512 6.758,6.365 6.432,5.144 6.201,3.86 5.968,2.569 5.832,1.227 5.808,-0.149 v -0.001 -0.047 0.002 -0.003 c -0.063,-3.999 0.768,-7.465 2.428,-11.081 1.642,-3.579 4.088,-7.28 7.284,-11.795 1.254,-1.772 3.971,-5.783 5.753,-10.466 1.648,-4.325 2.509,-9.227 0.616,-13.408 m -9.752,-3.194 c -4.505,-0.487 -8.124,0.054 -8.775,0.283 -6.194,2.173 -8.41,5.561 -9.376,9.135 H 3.57 c 1.493,-4.801 4.02,-8.021 8.567,-9.418" />
      </g>
      <g
         transform="matrix(0.35277777,0,0,-0.35277777,116.87214,237.9786)"
         id="g893">
        <path
           inkscape:connector-curvature="0"
           id="path895"
           style="fill:#f36f21;fill-opacity:1;fill-rule:nonzero;stroke:none"
           d="m 0,0 c 0.332,1.933 1.448,4.597 3.077,6.739 2.097,2.753 4.754,4.422 6.359,4.34 C 12.964,10.9 15.261,3.675 15.087,0 Z m -8.519,-4.874 v -0.042 z m 0,-0.042 V -4.92 Z M 2.062,12.026 c 1.729,-0.034 3.452,-0.149 5.134,-0.34 -3.61,-1.873 -8.342,-6.038 -9.035,-14.774 -0.633,-7.948 2.867,-13.547 9.373,-24.194 3.434,-5.618 12.927,-19.864 5.586,-25.749 -1.715,-1.373 -4.622,-0.367 -5.953,0.267 2.407,4.694 1.522,10.187 -0.307,14.981 -1.834,4.822 -4.621,8.934 -5.905,10.75 -3.096,4.377 -5.477,7.97 -7.072,11.383 -1.171,2.613 -1.92,5.146 -2.276,7.866 -0.1,0.935 -0.142,1.893 -0.126,2.89 v 0.02 0.004 c 0.023,1.326 0.152,2.596 0.369,3.797 0.219,1.211 0.525,2.367 0.906,3.455 1.917,5.474 5.932,9.41 9.306,9.644 m 6.774,-66.848 c -2.002,-0.527 -4.253,-0.491 -5.924,-0.378 -6.591,0.441 -12.281,3.418 -13.574,9.772 h 9.149 c 0.026,0 0.056,-0.002 0.082,-0.002 1.083,-2.786 2.865,-5.237 5.162,-6.797 0.752,-0.512 2.822,-1.586 3.939,-1.984 0.879,-0.314 1.766,-0.453 1.166,-0.611" />
      </g>
      <g
         transform="matrix(0.35277777,0,0,-0.35277777,149.69751,240.1382)"
         id="g897">
        <path
           inkscape:connector-curvature="0"
           id="path899"
           style="fill:#006426;fill-opacity:1;fill-rule:nonzero;stroke:none"
           d="M 0,0 C -0.74,0 -1.44,-0.14 -2.096,-0.419 -2.575,-0.666 -2.937,-0.863 -3.182,-1.01 v -0.371 c 0,0.871 -0.371,1.308 -1.111,1.308 -0.756,0 -1.133,-0.444 -1.133,-1.333 V -11.81 c 0,-0.886 0.377,-1.33 1.133,-1.33 0.74,0 1.111,0.444 1.111,1.33 v 4.858 c 0,0.95 0.049,1.742 0.148,2.372 0.086,0.547 0.209,0.971 0.37,1.275 0.227,0.416 0.598,0.718 1.111,0.904 0.117,0.043 0.237,0.078 0.369,0.108 0.558,0.083 1.114,0.176 1.665,0.284 0.551,0.107 0.826,0.415 0.826,0.924 C 1.307,-0.362 0.869,0 0,0 m 7.426,-1.948 c 0.747,0 1.39,-0.151 1.927,-0.453 l 2.981,0.002 c -0.222,0.332 -0.49,0.644 -0.801,0.933 C 10.44,-0.456 9.103,0.05 7.527,0.05 5.717,0.05 4.238,-0.593 3.086,-1.873 2.937,-2.044 2.797,-2.221 2.669,-2.401 l 2.784,0.002 c 0.523,0.3 1.18,0.451 1.973,0.451 m -70.73,1.875 c -0.757,0 -1.136,-0.444 -1.136,-1.333 v -4.905 c 0,-1.041 -0.109,-1.917 -0.329,-2.623 h 2.573 v 7.553 c 0,0.871 -0.367,1.308 -1.108,1.308 m -17.683,-2.244 h 4.587 c 0.902,0 1.355,0.352 1.355,1.06 0,0.724 -0.444,1.085 -1.331,1.085 h -4.069 c -1.184,0 -2.146,-0.206 -2.886,-0.618 -0.696,-0.377 -1.134,-0.915 -1.312,-1.611 l 2.865,0.002 c 0.207,0.055 0.469,0.082 0.791,0.082 m 29.294,-0.839 c 0.176,-0.338 0.295,-0.812 0.36,-1.422 0.04,-0.365 0.059,-0.779 0.059,-1.241 v -5.991 c 0,-0.886 0.378,-1.33 1.134,-1.33 0.742,0 1.111,0.444 1.111,1.33 v 4.858 c 0,0.935 0.075,1.724 0.225,2.372 h 0.002 c 0.082,0.354 0.186,0.663 0.315,0.932 0.276,0.571 0.668,0.987 1.174,1.247 h -5.138 c 0.322,-0.18 0.576,-0.432 0.758,-0.755 m 43.527,0.755 c -0.138,0.504 -0.343,0.911 -0.61,1.217 -0.609,0.674 -1.653,1.012 -3.133,1.012 h -3.994 c -0.822,0 -1.235,-0.361 -1.235,-1.085 0,-0.691 0.42,-1.036 1.254,-1.036 h 4.3 c 0.264,0 0.49,-0.035 0.679,-0.108 0.233,-0.09 0.407,-0.235 0.526,-0.434 0.147,-0.28 0.223,-0.74 0.223,-1.381 v -0.123 c -1.05,0 -2.012,-0.082 -2.888,-0.239 h 5.105 v 0.19 c 0,0.777 -0.074,1.439 -0.227,1.987 m -22.393,-0.755 c 0.177,-0.338 0.296,-0.812 0.361,-1.422 0.04,-0.365 0.059,-0.779 0.059,-1.241 v -5.991 c 0,-0.886 0.378,-1.33 1.134,-1.33 0.742,0 1.111,0.444 1.111,1.33 v 4.858 c 0,0.935 0.075,1.724 0.227,2.372 0.082,0.354 0.189,0.663 0.315,0.932 0.278,0.571 0.668,0.987 1.174,1.247 h -5.138 c 0.326,-0.18 0.577,-0.432 0.757,-0.755 m 15.198,-2.121 c -1.788,-0.8 -2.737,-2.02 -2.849,-3.657 h 2.19 c 0.128,1.765 2.083,2.647 5.864,2.647 v -2.317 c 0,-0.115 -0.004,-0.224 -0.009,-0.33 -0.042,-0.844 -0.25,-1.45 -0.621,-1.815 -0.151,-0.149 -0.34,-0.269 -0.569,-0.362 h 3.416 v 6.533 l -5.105,-0.002 c -0.854,-0.155 -1.627,-0.388 -2.317,-0.697 m 65.608,0.699 v 0 c -0.044,0.841 -0.194,1.565 -0.447,2.177 h -10e-4 c -0.672,1.617 -2.08,2.427 -4.225,2.427 -0.936,0 -1.7,-0.149 -2.291,-0.445 -0.544,-0.346 -0.947,-0.616 -1.211,-0.813 v -0.149 c 0,0.871 -0.367,1.308 -1.107,1.308 -0.758,0 -1.137,-0.444 -1.137,-1.333 v -0.995 l 3.986,0.002 c 0.424,0.22 0.929,0.329 1.515,0.329 0.618,0 1.127,-0.112 1.531,-0.331 0.324,-0.18 0.577,-0.432 0.763,-0.755 0.173,-0.338 0.295,-0.812 0.36,-1.422 0.039,-0.365 0.058,-0.779 0.058,-1.241 v -5.991 c 0,-0.886 0.371,-1.33 1.11,-1.33 0.74,0 1.11,0.444 1.11,1.33 v 6.682 c 0,0.187 -0.004,0.371 -0.014,0.55 m -12.48,0 c -0.203,0.799 -0.53,1.526 -0.985,2.177 -0.103,0.147 -0.211,0.289 -0.329,0.427 -1.117,1.349 -2.58,2.024 -4.389,2.024 -1.808,0 -3.271,-0.675 -4.389,-2.024 -0.117,-0.138 -0.225,-0.28 -0.33,-0.427 l 3.112,0.002 c 0.467,0.235 1.002,0.352 1.607,0.352 0.585,0 1.108,-0.117 1.566,-0.354 0.474,-0.242 0.88,-0.61 1.221,-1.1 0.236,-0.332 0.427,-0.691 0.57,-1.077 V -4.58 c 0.228,-0.608 0.343,-1.283 0.343,-2.027 0,-0.87 -0.152,-1.644 -0.453,-2.327 -0.127,-0.284 -0.282,-0.552 -0.46,-0.803 -0.549,-0.758 -1.252,-1.215 -2.113,-1.372 h -0.009 c -0.218,-0.04 -0.449,-0.059 -0.689,-0.059 -0.233,0 -0.456,0.018 -0.672,0.057 h -0.003 c -0.868,0.154 -1.571,0.62 -2.112,1.397 -0.171,0.245 -0.314,0.505 -0.437,0.78 -0.299,0.685 -0.449,1.461 -0.449,2.327 0,0.754 0.103,1.429 0.314,2.027 0.142,0.405 0.334,0.773 0.572,1.104 0.331,0.48 0.733,0.838 1.204,1.075 h -3.112 c -0.462,-0.656 -0.796,-1.381 -1.001,-2.177 -0.164,-0.639 -0.248,-1.325 -0.248,-2.054 0,-0.829 0.105,-1.596 0.315,-2.302 h 10e-4 c 0.24,-0.807 0.618,-1.533 1.134,-2.177 0.04,-0.052 0.084,-0.104 0.129,-0.156 1.118,-1.333 2.581,-1.997 4.389,-1.997 1.825,0 3.287,0.664 4.389,1.997 0.044,0.052 0.086,0.104 0.128,0.156 0.509,0.644 0.882,1.37 1.118,2.177 v 0.003 c 0.206,0.703 0.309,1.47 0.309,2.299 0,0.731 -0.08,1.415 -0.241,2.054 m 3.198,-8.562 c 0.74,0 1.107,0.444 1.107,1.33 v 4.858 c 0,0.935 0.081,1.724 0.238,2.372 0.088,0.354 0.196,0.663 0.331,0.932 0.276,0.571 0.668,0.987 1.173,1.247 h -3.986 v -9.409 c 0,-0.886 0.379,-1.33 1.137,-1.33 m -27.837,8.562 c -0.099,0.81 -0.362,1.535 -0.794,2.177 H 9.353 c 0.139,-0.077 0.27,-0.166 0.392,-0.262 0.572,-0.448 0.927,-1.088 1.064,-1.915 0.007,-0.051 0.016,-0.104 0.021,-0.155 H 4.023 c 0.009,0.051 0.018,0.105 0.026,0.155 0.198,1.029 0.663,1.754 1.404,2.177 H 2.669 C 2.207,-3.052 1.879,-3.775 1.681,-4.578 1.532,-5.179 1.459,-5.822 1.459,-6.508 c 0,-0.881 0.124,-1.689 0.371,-2.426 l 2.475,0.003 c -0.271,0.571 -0.42,1.28 -0.448,2.126 H 3.85 c 0,0 0.002,0.098 0.007,0 h 8.23 c 0.723,0 1.085,0.338 1.085,1.012 v 0.468 c 0,0.257 -0.014,0.506 -0.044,0.747 m -71.456,-8.562 c 0.74,0 1.11,0.444 1.11,1.33 v 4.858 c 0,0.935 0.079,1.724 0.235,2.372 h 10e-4 c 0.086,0.354 0.195,0.663 0.328,0.932 0.276,0.571 0.668,0.987 1.17,1.247 h -3.978 v -9.409 c 0,-0.886 0.378,-1.33 1.134,-1.33 m 38.11,10.739 h -0.002 c -0.166,0.368 -0.373,0.699 -0.619,0.995 -0.807,0.955 -1.998,1.432 -3.578,1.432 -1.429,0 -2.835,-0.674 -4.217,-2.023 -0.854,1.349 -2.203,2.023 -4.045,2.023 -1.233,0 -2.368,-0.42 -3.404,-1.258 v -0.149 c 0,0.871 -0.369,1.308 -1.109,1.308 -0.757,0 -1.135,-0.444 -1.135,-1.333 v -0.995 l 3.98,0.002 c 0.421,0.22 0.925,0.329 1.509,0.329 0.614,0 1.123,-0.112 1.522,-0.331 l 5.138,0.002 c 0.425,0.22 0.931,0.329 1.515,0.329 0.602,0 1.102,-0.112 1.497,-0.331 v -0.002 c 0.329,-0.183 0.586,-0.442 0.773,-0.777 0.173,-0.328 0.294,-0.795 0.359,-1.398 0.038,-0.363 0.059,-0.777 0.059,-1.241 v -5.991 c 0,-0.886 0.387,-1.33 1.16,-1.33 0.74,0 1.109,0.444 1.109,1.33 v 6.682 c 0,0.187 -0.005,0.371 -0.016,0.55 -0.049,0.827 -0.215,1.553 -0.496,2.177 m -55.938,-2.58 c -0.269,0.14 -0.622,0.273 -1.056,0.403 h -0.007 c -0.747,0.219 -1.73,0.421 -2.955,0.61 -1.446,0.229 -2.169,0.557 -2.169,0.984 0,0.289 0.187,0.482 0.565,0.583 h -2.865 c -0.063,-0.241 -0.095,-0.5 -0.095,-0.779 0,-0.542 0.151,-1.009 0.452,-1.398 v -0.003 c 0.47,-0.616 1.315,-1.046 2.533,-1.286 l 3.677,-0.74 c 1.215,-0.247 1.822,-0.904 1.822,-1.972 0,-0.123 -0.005,-0.241 -0.013,-0.355 -0.072,-0.776 -0.387,-1.316 -0.949,-1.618 -0.46,-0.246 -1.222,-0.37 -2.291,-0.37 h -4.169 c -0.374,0 -0.67,-0.061 -0.887,-0.189 h 9.873 c 0.406,0.591 0.635,1.316 0.691,2.176 0.009,0.139 0.016,0.283 0.016,0.43 0,1.626 -0.724,2.801 -2.173,3.524 m 34.803,2.58 h -0.002 c -0.168,0.368 -0.373,0.699 -0.621,0.995 -0.805,0.955 -1.998,1.432 -3.577,1.432 -1.431,0 -2.834,-0.674 -4.216,-2.023 -0.854,1.349 -2.204,2.023 -4.045,2.023 -1.233,0 -2.368,-0.42 -3.404,-1.258 v -0.149 c 0,0.871 -0.37,1.308 -1.11,1.308 -0.756,0 -1.134,-0.444 -1.134,-1.333 v -0.995 l 3.978,0.002 c 0.423,0.22 0.927,0.329 1.511,0.329 0.614,0 1.123,-0.112 1.522,-0.331 l 5.138,0.002 c 0.425,0.22 0.929,0.329 1.515,0.329 0.601,0 1.1,-0.112 1.497,-0.331 v -0.002 c 0.329,-0.183 0.584,-0.442 0.771,-0.777 0.176,-0.328 0.296,-0.795 0.359,-1.398 0.04,-0.363 0.06,-0.777 0.06,-1.241 v -5.991 c 0,-0.886 0.386,-1.33 1.159,-1.33 0.74,0 1.111,0.444 1.111,1.33 v 6.682 c 0,0.187 -0.007,0.371 -0.017,0.55 -0.049,0.827 -0.214,1.553 -0.495,2.177 m 4.161,-10.739 c 0.74,0 1.109,0.444 1.109,1.33 v 4.858 c 0,0.935 0.079,1.724 0.238,2.372 0.086,0.354 0.194,0.663 0.327,0.932 0.277,0.571 0.667,0.987 1.171,1.247 h -3.98 v -9.409 c 0,-0.886 0.378,-1.33 1.135,-1.33 m -29.685,2.031 h -0.004 c -0.246,-0.055 -0.507,-0.085 -0.789,-0.085 -0.309,0 -0.591,0.028 -0.845,0.083 -0.664,0.145 -1.139,0.48 -1.424,1.003 -0.16,0.287 -0.279,0.677 -0.353,1.174 -0.061,0.415 -0.091,0.904 -0.091,1.464 v 6.064 c 0,0.889 -0.371,1.333 -1.109,1.333 -0.757,0 -1.135,-0.444 -1.135,-1.333 v -6.756 c 0,-0.266 0.01,-0.524 0.033,-0.772 0.077,-0.834 0.282,-1.561 0.612,-2.177 h 0.002 c 0.145,-0.27 0.317,-0.52 0.511,-0.749 0.806,-0.953 1.982,-1.429 3.528,-1.429 1.1,0 2.234,0.394 3.403,1.184 h 0.098 c 0,0 0.104,-0.378 0.309,-0.641 0.205,-0.264 0.481,-0.394 0.827,-0.394 0.343,0 0.616,0.13 0.814,0.394 0.196,0.263 0.294,0.575 0.294,0.936 v 2.876 l -2.573,-0.001 c -0.378,-1.214 -1.083,-1.94 -2.108,-2.174 m 89.469,0.187 c -1.746,0 -3.166,0.411 -4.268,1.233 -0.303,0.227 -0.565,0.48 -0.793,0.755 H 17.53 c -0.686,0.834 -1.031,1.88 -1.031,3.141 0,0.441 0.058,0.846 0.174,1.213 0.167,0.535 0.46,0.988 0.874,1.364 0.436,0.393 1.053,0.664 1.849,0.815 h 0.005 c 0.48,0.089 1.025,0.132 1.636,0.132 0.231,0 0.558,-0.007 0.987,-0.024 0.426,-0.017 0.731,-0.024 0.911,-0.024 1.382,0 2.073,0.369 2.073,1.11 0,0.69 -0.437,1.035 -1.308,1.035 h -3.576 c -1.793,0 -3.231,-0.476 -4.316,-1.431 -0.269,-0.246 -0.505,-0.51 -0.71,-0.798 -0.441,-0.624 -0.731,-1.35 -0.871,-2.177 -0.063,-0.383 -0.096,-0.789 -0.096,-1.215 0,-1.135 0.239,-2.18 0.72,-3.141 h 0.002 c 0.203,-0.402 0.446,-0.789 0.733,-1.162 0.289,-0.373 0.6,-0.711 0.938,-1.015 h 8.573 c -0.22,0.128 -0.523,0.189 -0.904,0.189 z m -107.599,-1.059 c 0,-0.724 0.436,-1.086 1.305,-1.086 h 3.798 c 2.585,0 4.324,0.652 5.214,1.956 h -9.873 c -0.297,-0.172 -0.444,-0.462 -0.444,-0.87 m 97.453,0.87 h -1.557 1.557 c -0.208,0.109 -0.484,0.165 -0.826,0.165 -2.219,0 -3.461,0.007 -3.724,0.024 -1.3,0.115 -2.262,0.46 -2.886,1.036 -0.289,0.258 -0.523,0.574 -0.705,0.952 L 1.83,-8.935 c 0.201,-0.599 0.484,-1.15 0.85,-1.653 0.131,-0.185 0.274,-0.358 0.425,-0.523 h 0.002 c 0.78,-0.836 1.808,-1.408 3.087,-1.709 0.707,-0.164 1.718,-0.247 3.032,-0.247 h 2.394 c 0.87,0 1.307,0.353 1.307,1.06 0,0.429 -0.161,0.728 -0.481,0.896 m -25.391,-0.255 c -0.691,0 -1.266,0.085 -1.725,0.255 h -10e-4 c -0.905,0.333 -1.356,0.998 -1.356,1.989 0,0.063 0.002,0.128 0.007,0.188 h -2.19 c -0.007,-0.11 -0.011,-0.221 -0.011,-0.335 0,-0.701 0.126,-1.316 0.387,-1.842 0.238,-0.489 0.586,-0.901 1.046,-1.241 0.859,-0.625 1.991,-0.937 3.39,-0.937 1.086,0 2.143,0.238 3.166,0.715 h 0.076 v 0.764 c 0,-0.361 0.101,-0.673 0.304,-0.936 0.205,-0.264 0.476,-0.394 0.817,-0.394 0.733,0 1.096,0.444 1.096,1.33 v 0.699 l -3.416,-0.002 c -0.407,-0.168 -0.935,-0.253 -1.59,-0.253 m 38.042,0.255 -8.573,-0.002 c 0.803,-0.725 1.747,-1.261 2.835,-1.608 0.725,-0.231 1.9,-0.346 3.527,-0.346 h 1.307 c 0.904,0 1.357,0.362 1.357,1.086 0,0.408 -0.152,0.698 -0.453,0.87" />
      </g>
      <g
         transform="matrix(0.35277777,0,0,-0.35277777,162.68213,248.93941)"
         id="g901">
        <path
           inkscape:connector-curvature="0"
           id="path903"
           style="fill:#020405;fill-opacity:1;fill-rule:nonzero;stroke:none"
           d="m 0,0 c -0.122,-0.081 -0.329,-0.12 -0.619,-0.12 -0.411,0 -0.718,0.158 -0.919,0.474 -0.197,0.318 -0.299,0.742 -0.299,1.273 0,0.523 0.102,0.952 0.306,1.287 0.207,0.335 0.537,0.503 0.998,0.503 0.152,0 0.328,-0.027 0.533,-0.083 z M 0,5.738 V 3.729 c -0.233,0.062 -0.457,0.093 -0.675,0.093 -0.277,0 -0.527,-0.05 -0.754,-0.149 C -1.655,3.573 -1.852,3.426 -2.019,3.235 -2.187,3.04 -2.313,2.805 -2.402,2.525 -2.493,2.246 -2.536,1.929 -2.536,1.574 c 0,-0.429 0.073,-0.81 0.216,-1.137 0.146,-0.328 0.361,-0.579 0.641,-0.756 0.281,-0.175 0.626,-0.263 1.028,-0.263 0.291,0 0.546,0.027 0.768,0.076 0.222,0.053 0.415,0.128 0.574,0.223 v 6.021 z m -4.261,-6.24 h 0.7 v 6.24 h -0.7 z M -6.21,3.786 C -6.437,3.741 -6.654,3.662 -6.868,3.551 v -4.053 h 0.707 v 3.747 c 0.14,0.093 0.327,0.14 0.558,0.14 0.135,0 0.276,-0.022 0.423,-0.063 l 0.168,0.532 h -0.259 c -0.402,0 -0.715,-0.023 -0.939,-0.068 M -8.608,0.762 C -8.657,0.51 -8.757,0.304 -8.897,0.143 c -0.142,-0.16 -0.341,-0.24 -0.596,-0.24 -0.364,0 -0.618,0.162 -0.761,0.482 -0.144,0.322 -0.214,0.74 -0.214,1.252 0,1.185 0.324,1.78 0.975,1.78 0.641,0 0.963,-0.595 0.963,-1.78 0,-0.331 -0.026,-0.624 -0.078,-0.875 m 0.054,2.816 c -0.254,0.188 -0.57,0.283 -0.952,0.283 -0.372,0 -0.685,-0.095 -0.934,-0.283 -0.252,-0.189 -0.435,-0.451 -0.558,-0.786 -0.119,-0.335 -0.178,-0.722 -0.178,-1.155 0,-0.666 0.14,-1.202 0.421,-1.608 0.28,-0.407 0.702,-0.611 1.262,-0.611 0.374,0 0.685,0.095 0.934,0.283 0.25,0.19 0.437,0.449 0.558,0.781 0.119,0.333 0.18,0.716 0.18,1.155 0,0.442 -0.06,0.829 -0.177,1.16 -0.119,0.332 -0.304,0.592 -0.556,0.781 m -4.772,-2.563 c -0.033,-0.157 -0.058,-0.288 -0.072,-0.39 -0.012,-0.102 -0.021,-0.181 -0.026,-0.239 h -0.014 c -0.005,0.058 -0.019,0.149 -0.04,0.275 -0.019,0.125 -0.044,0.243 -0.074,0.354 l -0.934,3.951 h -0.56 L -15.992,1.015 C -16.025,0.89 -16.05,0.768 -16.071,0.646 -16.088,0.524 -16.102,0.439 -16.109,0.386 h -0.016 c -0.005,0.053 -0.017,0.135 -0.033,0.249 -0.018,0.113 -0.039,0.24 -0.065,0.38 l -0.787,3.951 h -0.754 l 1.277,-5.468 h 0.645 l 0.931,3.814 c 0.033,0.148 0.06,0.275 0.075,0.383 0.014,0.107 0.025,0.184 0.03,0.231 h 0.016 c 0.009,-0.047 0.023,-0.134 0.043,-0.257 0.025,-0.125 0.048,-0.243 0.072,-0.357 l 0.926,-3.814 h 0.643 l 1.281,5.468 H -12.5 Z m -8.236,-1.517 h 0.7 v 6.24 h -0.7 z m -1.884,0.584 c -0.197,-0.12 -0.451,-0.179 -0.768,-0.179 -0.278,0 -0.489,0.08 -0.636,0.244 -0.146,0.163 -0.219,0.376 -0.219,0.641 v 2.994 h -0.708 V 0.811 c 0,-0.445 0.125,-0.79 0.374,-1.035 0.25,-0.244 0.633,-0.365 1.151,-0.365 0.327,0 0.617,0.032 0.875,0.097 0.253,0.063 0.467,0.147 0.638,0.246 v 4.028 h -0.707 z m -4.548,4.305 V 3.782 h -0.493 V 3.345 h 0.493 v -3.847 h 0.7 v 3.847 h 0.748 v 0.437 h -0.748 v 0.682 c 0,0.523 0.248,0.8 0.748,0.828 v 0.446 c -0.47,0 -0.829,-0.122 -1.077,-0.365 -0.248,-0.244 -0.371,-0.571 -0.371,-0.986 m -2.141,-0.601 c -0.224,-0.045 -0.442,-0.124 -0.658,-0.235 v -4.053 h 0.71 v 3.747 c 0.14,0.093 0.324,0.14 0.555,0.14 0.138,0 0.28,-0.022 0.425,-0.063 l 0.168,0.532 h -0.257 c -0.404,0 -0.717,-0.023 -0.943,-0.068 m -4.321,-2.038 c 0,0.284 0.025,0.533 0.079,0.747 0.054,0.212 0.128,0.386 0.224,0.521 0.094,0.135 0.208,0.234 0.336,0.297 0.126,0.064 0.269,0.095 0.427,0.095 0.316,0 0.559,-0.108 0.729,-0.326 0.171,-0.216 0.257,-0.561 0.257,-1.028 z m 2.61,0.94 c -0.071,0.265 -0.178,0.484 -0.32,0.661 -0.14,0.175 -0.311,0.306 -0.513,0.389 -0.202,0.082 -0.431,0.123 -0.687,0.123 -0.253,0 -0.486,-0.047 -0.694,-0.139 -0.209,-0.094 -0.392,-0.235 -0.55,-0.423 -0.156,-0.19 -0.276,-0.423 -0.358,-0.701 -0.082,-0.275 -0.124,-0.592 -0.124,-0.947 0,-0.367 0.045,-0.691 0.134,-0.972 0.093,-0.281 0.222,-0.518 0.397,-0.708 0.173,-0.19 0.376,-0.33 0.609,-0.419 0.233,-0.09 0.488,-0.134 0.768,-0.134 0.542,0 0.974,0.097 1.294,0.292 l -0.18,0.461 c -0.288,-0.163 -0.642,-0.245 -1.06,-0.245 -0.386,0 -0.691,0.12 -0.911,0.36 -0.219,0.238 -0.35,0.601 -0.392,1.084 l 2.697,0.392 c 0,0.353 -0.038,0.661 -0.11,0.926 M -36.751,0 c -0.119,-0.081 -0.327,-0.12 -0.617,-0.12 -0.413,0 -0.719,0.158 -0.919,0.474 -0.199,0.318 -0.299,0.742 -0.299,1.273 0,0.523 0.102,0.952 0.306,1.287 0.207,0.335 0.537,0.503 0.996,0.503 0.152,0 0.33,-0.027 0.533,-0.083 z m 0,3.729 c -0.232,0.062 -0.456,0.093 -0.675,0.093 -0.275,0 -0.527,-0.05 -0.754,-0.149 -0.226,-0.1 -0.422,-0.247 -0.59,-0.438 -0.166,-0.195 -0.293,-0.43 -0.383,-0.71 -0.089,-0.279 -0.134,-0.596 -0.134,-0.951 0,-0.429 0.073,-0.81 0.218,-1.137 0.144,-0.328 0.357,-0.579 0.641,-0.756 0.281,-0.175 0.624,-0.263 1.028,-0.263 0.291,0 0.546,0.027 0.768,0.076 0.222,0.053 0.415,0.128 0.574,0.223 v 6.021 h -0.693 z m -5.032,0.132 c -0.63,0 -1.152,-0.1 -1.573,-0.301 v -4.062 h 0.707 v 3.759 c 0.134,0.055 0.258,0.094 0.37,0.117 0.114,0.023 0.261,0.034 0.441,0.034 0.336,0 0.569,-0.079 0.701,-0.238 0.132,-0.159 0.198,-0.359 0.198,-0.595 v -3.077 h 0.7 v 3.093 c 0,0.358 -0.12,0.659 -0.36,0.905 -0.24,0.243 -0.635,0.365 -1.184,0.365 m -3.31,-3.099 c -0.053,-0.252 -0.149,-0.458 -0.291,-0.619 -0.143,-0.16 -0.343,-0.24 -0.596,-0.24 -0.366,0 -0.619,0.162 -0.761,0.482 -0.143,0.322 -0.215,0.74 -0.215,1.252 0,1.185 0.323,1.78 0.976,1.78 0.64,0 0.964,-0.595 0.964,-1.78 0,-0.331 -0.028,-0.624 -0.077,-0.875 m 0.05,2.816 c -0.251,0.188 -0.568,0.283 -0.949,0.283 -0.375,0 -0.686,-0.095 -0.936,-0.283 -0.25,-0.189 -0.436,-0.451 -0.555,-0.786 -0.122,-0.335 -0.182,-0.722 -0.182,-1.155 0,-0.666 0.14,-1.202 0.422,-1.608 0.281,-0.407 0.701,-0.611 1.263,-0.611 0.373,0 0.684,0.095 0.934,0.283 0.25,0.19 0.435,0.449 0.556,0.781 0.119,0.333 0.18,0.716 0.18,1.155 0,0.442 -0.059,0.829 -0.176,1.16 -0.119,0.332 -0.303,0.592 -0.557,0.781 m -4.771,-2.563 c -0.034,-0.157 -0.057,-0.288 -0.071,-0.39 -0.012,-0.102 -0.021,-0.181 -0.026,-0.239 h -0.015 c -0.006,0.058 -0.018,0.149 -0.041,0.275 -0.019,0.125 -0.043,0.243 -0.073,0.354 l -0.934,3.951 h -0.56 L -52.48,1.015 c -0.032,-0.125 -0.058,-0.247 -0.076,-0.369 -0.021,-0.122 -0.035,-0.207 -0.042,-0.26 h -0.015 c -0.006,0.053 -0.016,0.135 -0.034,0.249 -0.017,0.113 -0.036,0.24 -0.063,0.38 l -0.789,3.951 h -0.752 l 1.277,-5.468 h 0.644 l 0.932,3.814 c 0.034,0.148 0.058,0.275 0.074,0.383 0.014,0.107 0.024,0.184 0.031,0.231 h 0.016 c 0.007,-0.047 0.021,-0.134 0.044,-0.257 0.022,-0.125 0.045,-0.243 0.071,-0.357 l 0.926,-3.814 h 0.642 l 1.28,5.468 h -0.675 z m -7.68,1.293 c -0.068,0.04 -0.145,0.059 -0.227,0.059 -0.128,0 -0.238,-0.043 -0.328,-0.128 -0.087,-0.086 -0.132,-0.194 -0.132,-0.323 0,-0.132 0.043,-0.243 0.131,-0.332 0.087,-0.087 0.199,-0.131 0.329,-0.131 0.129,0 0.237,0.044 0.325,0.133 0.086,0.09 0.128,0.201 0.128,0.33 0,0.082 -0.02,0.159 -0.061,0.229 -0.043,0.07 -0.097,0.126 -0.165,0.163 m -6.513,-0.56 c 0,0.284 0.028,0.533 0.079,0.747 0.054,0.212 0.128,0.386 0.224,0.521 0.096,0.135 0.208,0.234 0.336,0.297 0.126,0.064 0.269,0.095 0.427,0.095 0.316,0 0.559,-0.108 0.729,-0.326 0.172,-0.216 0.257,-0.561 0.257,-1.028 z m 2.61,0.94 c -0.071,0.265 -0.178,0.484 -0.318,0.661 -0.142,0.175 -0.313,0.306 -0.514,0.389 -0.203,0.082 -0.433,0.123 -0.688,0.123 -0.253,0 -0.484,-0.047 -0.694,-0.139 -0.208,-0.094 -0.392,-0.235 -0.549,-0.423 -0.156,-0.19 -0.277,-0.423 -0.359,-0.701 -0.082,-0.275 -0.123,-0.592 -0.123,-0.947 0,-0.367 0.044,-0.691 0.133,-0.972 0.093,-0.281 0.224,-0.518 0.397,-0.708 0.174,-0.19 0.377,-0.33 0.609,-0.419 0.233,-0.09 0.49,-0.134 0.768,-0.134 0.544,0 0.975,0.097 1.296,0.292 l -0.182,0.461 c -0.288,-0.163 -0.64,-0.245 -1.06,-0.245 -0.386,0 -0.691,0.12 -0.909,0.36 -0.221,0.238 -0.352,0.601 -0.392,1.084 l 2.696,0.392 c 0,0.353 -0.037,0.661 -0.111,0.926 m -5.304,1.699 V 3.782 h -0.495 V 3.345 h 0.495 v -3.847 h 0.698 v 3.847 h 0.751 v 0.437 h -0.751 v 0.682 c 0,0.523 0.252,0.8 0.751,0.828 v 0.446 c -0.473,0 -0.831,-0.122 -1.078,-0.365 -0.246,-0.244 -0.371,-0.571 -0.371,-0.986 m -1.764,0.993 c -0.118,0 -0.219,-0.038 -0.298,-0.115 -0.079,-0.075 -0.117,-0.168 -0.117,-0.275 0,-0.104 0.04,-0.194 0.119,-0.27 0.082,-0.075 0.18,-0.111 0.296,-0.111 0.115,0 0.209,0.036 0.288,0.111 0.077,0.076 0.117,0.166 0.117,0.27 0,0.107 -0.038,0.2 -0.115,0.275 -0.077,0.077 -0.173,0.115 -0.29,0.115 m -0.349,-5.882 h 0.7 v 4.284 h -0.7 z m -2.513,5.468 h -0.732 v -5.468 h 2.376 v 0.493 h -1.644 z m -4.879,-5.468 h 0.7 v 6.24 h -0.7 z m -1.886,0.584 c -0.194,-0.12 -0.451,-0.179 -0.766,-0.179 -0.277,0 -0.49,0.08 -0.635,0.244 -0.147,0.163 -0.219,0.376 -0.219,0.641 v 2.994 h -0.71 V 0.811 c 0,-0.445 0.126,-0.79 0.374,-1.035 0.25,-0.244 0.634,-0.365 1.153,-0.365 0.326,0 0.616,0.032 0.871,0.097 0.257,0.063 0.471,0.147 0.641,0.246 v 4.028 h -0.709 z m -4.545,4.305 V 3.782 h -0.494 V 3.345 h 0.494 v -3.847 h 0.698 v 3.847 h 0.749 v 0.437 h -0.749 v 0.682 c 0,0.523 0.251,0.8 0.749,0.828 v 0.446 c -0.471,0 -0.829,-0.122 -1.076,-0.365 -0.248,-0.244 -0.371,-0.571 -0.371,-0.986 m -2.142,-0.601 c -0.224,-0.045 -0.443,-0.124 -0.657,-0.235 v -4.053 h 0.709 v 3.747 c 0.138,0.093 0.325,0.14 0.556,0.14 0.137,0 0.279,-0.022 0.424,-0.063 l 0.168,0.532 h -0.258 c -0.404,0 -0.717,-0.023 -0.942,-0.068 M -89.1,1.748 c 0,0.284 0.026,0.533 0.079,0.747 0.054,0.212 0.127,0.386 0.224,0.521 0.094,0.135 0.208,0.234 0.335,0.297 0.128,0.064 0.27,0.095 0.427,0.095 0.318,0 0.56,-0.108 0.731,-0.326 0.17,-0.216 0.254,-0.561 0.254,-1.028 z m 2.61,0.94 c -0.072,0.265 -0.18,0.484 -0.319,0.661 -0.141,0.175 -0.315,0.306 -0.514,0.389 -0.203,0.082 -0.432,0.123 -0.687,0.123 -0.254,0 -0.485,-0.047 -0.695,-0.139 -0.21,-0.094 -0.392,-0.235 -0.549,-0.423 -0.156,-0.19 -0.276,-0.423 -0.359,-0.701 -0.082,-0.275 -0.124,-0.592 -0.124,-0.947 0,-0.367 0.045,-0.691 0.135,-0.972 0.091,-0.281 0.224,-0.518 0.397,-0.708 0.173,-0.19 0.376,-0.33 0.609,-0.419 0.232,-0.09 0.488,-0.134 0.767,-0.134 0.543,0 0.975,0.097 1.295,0.292 l -0.18,0.461 c -0.289,-0.163 -0.642,-0.245 -1.059,-0.245 -0.388,0 -0.694,0.12 -0.912,0.36 -0.219,0.238 -0.35,0.601 -0.392,1.084 l 2.695,0.392 c 0,0.353 -0.035,0.661 -0.108,0.926 M -91.395,0 c -0.119,-0.081 -0.326,-0.12 -0.618,-0.12 -0.413,0 -0.719,0.158 -0.918,0.474 -0.2,0.318 -0.299,0.742 -0.299,1.273 0,0.523 0.101,0.952 0.308,1.287 0.203,0.335 0.535,0.503 0.995,0.503 0.15,0 0.331,-0.027 0.532,-0.083 z m 0,3.729 c -0.233,0.062 -0.457,0.093 -0.674,0.093 -0.276,0 -0.528,-0.05 -0.755,-0.149 -0.226,-0.1 -0.422,-0.247 -0.59,-0.438 -0.166,-0.195 -0.294,-0.43 -0.383,-0.71 -0.089,-0.279 -0.135,-0.596 -0.135,-0.951 0,-0.429 0.074,-0.81 0.219,-1.137 0.145,-0.328 0.358,-0.579 0.64,-0.756 0.28,-0.175 0.625,-0.263 1.029,-0.263 0.288,0 0.546,0.027 0.768,0.076 0.222,0.053 0.412,0.128 0.575,0.223 v 6.021 h -0.694 z m -5.033,0.132 c -0.628,0 -1.153,-0.1 -1.572,-0.301 v -4.062 h 0.706 v 3.759 c 0.137,0.055 0.261,0.094 0.373,0.117 0.112,0.023 0.259,0.034 0.441,0.034 0.333,0 0.566,-0.079 0.698,-0.238 0.133,-0.159 0.199,-0.359 0.199,-0.595 v -3.077 h 0.698 v 3.093 c 0,0.358 -0.119,0.659 -0.359,0.905 -0.241,0.243 -0.635,0.365 -1.184,0.365 m -3.311,-3.099 c -0.051,-0.252 -0.149,-0.458 -0.289,-0.619 -0.143,-0.16 -0.341,-0.24 -0.597,-0.24 -0.363,0 -0.619,0.162 -0.762,0.482 -0.144,0.322 -0.215,0.74 -0.215,1.252 0,1.185 0.327,1.78 0.977,1.78 0.642,0 0.963,-0.595 0.963,-1.78 0,-0.331 -0.025,-0.624 -0.077,-0.875 m 0.052,2.816 c -0.252,0.188 -0.568,0.283 -0.952,0.283 -0.372,0 -0.684,-0.095 -0.934,-0.283 -0.25,-0.189 -0.435,-0.451 -0.556,-0.786 -0.119,-0.335 -0.18,-0.722 -0.18,-1.155 0,-0.666 0.142,-1.202 0.423,-1.608 0.278,-0.407 0.7,-0.611 1.261,-0.611 0.373,0 0.685,0.095 0.935,0.283 0.25,0.19 0.435,0.449 0.554,0.781 0.122,0.333 0.182,0.716 0.182,1.155 0,0.442 -0.06,0.829 -0.177,1.16 -0.117,0.332 -0.302,0.592 -0.556,0.781 m -4.772,-2.563 c -0.033,-0.157 -0.058,-0.288 -0.07,-0.39 -0.012,-0.102 -0.021,-0.181 -0.026,-0.239 h -0.016 c -0.005,0.058 -0.019,0.149 -0.038,0.275 -0.021,0.125 -0.046,0.243 -0.076,0.354 l -0.934,3.951 h -0.56 l -0.948,-3.951 c -0.029,-0.125 -0.054,-0.247 -0.075,-0.369 -0.019,-0.122 -0.033,-0.207 -0.04,-0.26 h -0.016 c -0.003,0.053 -0.018,0.135 -0.033,0.249 -0.016,0.113 -0.037,0.24 -0.065,0.38 l -0.787,3.951 h -0.752 l 1.277,-5.468 h 0.645 l 0.931,3.814 c 0.033,0.148 0.058,0.275 0.073,0.383 0.016,0.107 0.025,0.184 0.03,0.231 h 0.018 c 0.007,-0.047 0.022,-0.134 0.043,-0.257 0.021,-0.125 0.048,-0.243 0.072,-0.357 l 0.925,-3.814 h 0.643 l 1.282,5.468 h -0.676 z" />
      </g>
    </g>
  </g>
</svg>
